<svg width="28" height="27" viewBox="0 0 28 27" fill="none" xmlns="http://www.w3.org/2000/svg">
<rect width="28" height="27" rx="3.61111" fill="#AA59E7"/>
<path d="M9.89727 6C8.69931 6 7.63204 6.50991 6.82613 7.30804C6.04201 8.10616 5.54105 9.19249 5.54105 10.434C5.54105 11.6534 6.04201 12.7397 6.82613 13.56L14.2535 21.12L21.6809 13.56C22.465 12.7619 22.966 11.6755 22.966 10.434C22.966 9.21466 22.465 8.12833 21.6809 7.30804C20.8967 6.50991 19.8295 6 18.6097 6C17.4118 6 16.3445 6.50991 15.5386 7.30804C14.7545 8.10616 14.2535 9.19249 14.2535 10.434C14.2535 9.21466 13.7525 8.12833 12.9684 7.30804C12.1843 6.50991 11.117 6 9.89727 6Z" fill="#F9F4FD"/>
</svg>
