<svg width="32" height="36" viewBox="0 0 32 36" fill="none" xmlns="http://www.w3.org/2000/svg">
<path d="M11.7333 20.7195V20.777C11.7175 21.9927 10.6953 22.9069 8.66668 23.5195C11.1111 25.2972 13.5556 26.7195 16 26.7195C18.4444 26.7195 20.8889 25.2972 23.3333 23.5195C21.3185 22.9062 20.2963 21.9906 20.2667 20.7728C20.2667 20.5558 20.2683 20.2475 20.2697 19.6687C20.2697 19.5768 20.27 19.4826 20.2704 19.3863C20.4161 19.4068 20.4037 19.3938 20.2704 19.3567C20.2744 17.8342 20.2809 15.7868 20.29 13.7062C22.2009 11.2292 21.4989 8.32535 20.9001 8.39775C20.1661 8.48722 13.8057 2.45149 12.5857 2.14202C11.3657 1.83255 8.26668 2.83162 7.73335 5.61495C7.20001 8.39829 6.97708 15.414 9.00001 18.215C9.57566 19.012 10.4823 19.3238 11.72 19.1503C11.7217 19.7328 11.7252 20.0598 11.7333 20.7195Z" fill="#C17154"/>
<path d="M11.7333 19.1483C14.6667 18.8149 16.5333 17.5483 16.5333 17.5483C16.5333 17.5483 14.5147 20.2305 11.7333 20.7483V19.1483Z" fill="#9F553B"/>
<path d="M21.2667 13.7483C22.1854 11.539 25.8667 7.03935 22.6934 4.23935C21.6267 -0.960648 15.7334 -0.385048 11.8 0.814952C9.15642 1.62148 7.16002 3.21495 6.73335 2.01495C4.06668 4.23935 5.40215 6.41495 7.16002 7.03935C8.75548 7.60602 11.4534 8.17269 16.0408 7.63935C16.8603 7.54402 16.6887 10.0538 17.1266 10.3251C17.7835 10.7322 18.2934 8.17269 20.0944 8.94122C21.8955 9.70975 20.8267 13.2732 18.8934 13.2732C18.2267 13.2732 17.8934 15.1062 19.6934 15.9728C21 16.615 20.6698 15.1839 21.2667 13.7483Z" fill="#40251D"/>
<path d="M30 27.5894C31.2693 30.1703 32 36.1227 32 36.1227H0C0 36.1227 0.730933 30.1696 2 27.5894C3.26907 25.0091 10.68 22.6159 10.68 22.6159C12.1084 25.5483 19.9477 25.5483 21.3161 22.615C21.3161 22.615 28.7307 25.0084 30 27.5894Z" fill="#FD706B"/>
<mask id="mask0_5222_36" style="mask-type:alpha" maskUnits="userSpaceOnUse" x="0" y="22" width="32" height="15">
<path d="M30 27.5894C31.2693 30.1703 32 36.1227 32 36.1227H0C0 36.1227 0.730933 30.1696 2 27.5894C3.26907 25.0091 10.68 22.6159 10.68 22.6159C12.1084 25.5483 19.9477 25.5483 21.3161 22.615C21.3161 22.615 28.7307 25.0084 30 27.5894Z" fill="url(#paint0_linear_5222_36)"/>
</mask>
<g mask="url(#mask0_5222_36)">
<path d="M-1.33331 33.415V32.3483H33.3334V33.415H-1.33331ZM-1.33331 30.7483V29.6817H33.3334V30.7483H-1.33331ZM-1.33331 28.0817V27.015H33.3334V28.0817H-1.33331Z" fill="#DD5752"/>
</g>
<defs>
<linearGradient id="paint0_linear_5222_36" x1="16" y1="36.1227" x2="16" y2="22.615" gradientUnits="userSpaceOnUse">
<stop stop-color="#E6864E"/>
<stop offset="1" stop-color="#E67240"/>
</linearGradient>
</defs>
</svg>
