<svg width="50" height="50" viewBox="0 0 50 29" fill="none" xmlns="http://www.w3.org/2000/svg">
<path d="M50 28.2558C48.1813 28.7183 47.0562 28.2761 46.0469 26.7605L38.8687 16.8292L37.8312 15.4542L29.4484 26.7933C28.4906 28.1573 27.4859 28.7511 25.6984 28.2683L36.4328 13.8589L26.4391 0.843289C28.1578 0.508914 29.3453 0.679226 30.4 2.21829L37.8453 12.273L45.3453 2.27298C46.3063 0.908914 47.3391 0.390164 49.0641 0.893289L45.1891 6.03079L39.9391 12.8667C39.3141 13.648 39.4 14.1824 39.975 14.937L50 28.2558ZM0.0125 13.6183L0.890625 9.29954C3.28125 0.752664 13.0781 -2.7989 19.8344 2.48235C23.7828 5.5886 24.7641 9.98235 24.5688 14.9042H2.3125C1.97812 23.7636 8.35469 29.1105 16.4844 26.3824C19.3359 25.4245 21.0156 23.1917 21.8563 20.398C22.2828 18.998 22.9891 18.7792 24.3047 19.1792C23.6328 22.673 22.1172 25.5917 18.9141 27.4183C14.1281 30.1527 7.29687 29.2683 3.70312 25.4683C1.5625 23.2636 0.678125 20.4699 0.28125 17.4824C0.21875 16.9886 0.09375 16.5183 0 16.0449C0.00833333 15.2365 0.0125 14.4282 0.0125 13.6199V13.6183ZM2.35313 13.0245H22.4656C22.3344 6.61829 18.3453 2.06829 12.8938 2.02923C6.90937 1.98235 2.6125 6.42454 2.35313 13.0245Z" fill="white"/>
</svg>
