<svg width="50" height="50" viewBox="0 0 23 50" fill="none" xmlns="http://www.w3.org/2000/svg">
<path d="M22.0041 19.8292C19.3729 8.24583 13.1666 4.43958 12.4999 2.98333C11.7666 1.95625 10.9729 0 10.9729 0C10.9687 0.0395833 10.9645 0.0645833 10.9624 0.102083V0.129167H10.9604C10.9562 0.160417 10.9541 0.18125 10.952 0.210417V0.241667H10.9479C10.9479 0.2625 10.9437 0.279167 10.9437 0.295833V0.35H10.9374C10.9354 0.366667 10.9354 0.3875 10.9312 0.402083V0.445833H10.927C10.927 0.460417 10.927 0.477083 10.9229 0.489583V0.53125H10.9187C10.9187 0.552083 10.9166 0.577083 10.9145 0.597917V0.602083C10.9083 0.6375 10.902 0.672917 10.8958 0.70625V0.722917H10.8916C10.8895 0.73125 10.8854 0.739583 10.8854 0.747917V0.783333H10.8791V0.829167H10.8687V0.866667H10.8583V0.910417H10.8499V0.95H10.8416V0.985417H10.8291V1.01458H10.8208V1.05208H10.8124V1.08125H10.802V1.10833H10.7958V1.13958H10.7874C10.7854 1.14167 10.7854 1.14583 10.7854 1.14792V1.16875H10.7791C10.777 1.17292 10.777 1.17708 10.777 1.18125V1.19375H10.7729C10.7708 1.2 10.7687 1.21042 10.7687 1.21458C10.7624 1.22917 10.7541 1.24375 10.7479 1.25833V1.2625C10.7437 1.26667 10.7395 1.27292 10.7374 1.27708V1.29375H10.7291V1.31042H10.7187V1.32708H10.7124V1.34792H10.6999V1.37708H10.6916V1.38542H10.6833V1.40208H10.6749V1.425H10.6666V1.44167H10.6541V1.46458H10.6458V1.48125H10.6354V1.49792H10.6291V1.51875H10.6187V1.53542H10.6104V1.54792H10.602V1.56458H10.5895V1.58333H10.5812V1.59583H10.5708V1.6125H10.5624V1.63542H10.552V1.64375H10.5458V1.66042H10.5333V1.66875H10.5249V1.68958H10.5166V1.69792H10.5083V1.71458H10.4979V1.72708H10.4916L10.4874 1.73542V1.74375H10.4833C10.4812 1.74792 10.4791 1.74792 10.4791 1.75208L10.477 1.75417C10.4749 1.76042 10.4729 1.76458 10.4687 1.76875V1.775C10.4583 1.7875 10.4499 1.8 10.4416 1.8125C10.4374 1.81667 10.427 1.82708 10.4229 1.83542V1.83958H10.4208C10.4187 1.84167 10.4145 1.84375 10.4145 1.84583V1.85208H10.4104L10.4041 1.85833L10.402 1.86042C10.402 1.8625 10.3979 1.86458 10.3958 1.86875V1.87708H10.3895L10.3854 1.88125V1.88542H10.3812C10.3812 1.88958 10.377 1.88958 10.377 1.89167V1.89792H10.3687C10.3687 1.9 10.3666 1.90208 10.3645 1.90417V1.91667H10.3583V1.925H10.3499V1.9375H10.3416V1.95417H10.3312V1.9375H10.3208V1.94583H10.3124V1.95833H10.302V1.975H10.2916V1.98333H10.2833V1.99583H10.2749V2.00417H10.2666V2.02083H10.2541V2.02917H10.2458V2.04167H10.2354V2.05H10.227V2.06042H10.2166V2.08125H10.2124V2.08958H10.1999V2.1H10.1916V2.10417H10.1833V2.1125H10.1729V2.13333H10.1645V2.14167H10.1541V2.15H10.1458V2.1625H10.1354V2.17083H10.1249V2.17917H10.1166V2.1875H10.1083V2.20833H10.0999V2.21875H10.0874V2.22708H10.0791V2.23542H10.0687V2.24792H10.0604V2.25625H10.0499V2.27083H10.0416V2.27917H10.0291V2.29167H10.0249V2.3H10.0166V2.30833H10.0062V2.31667H9.99786V2.32917H9.98744V2.3375H9.98119C9.97911 2.33958 9.97911 2.34167 9.97911 2.34167V2.34583H9.97494L9.96661 2.35417C9.96661 2.35417 9.96244 2.35833 9.95827 2.36042V2.37292H9.94994V2.38333H9.94161V2.39167H9.93327V2.4H9.92702L9.92077 2.40625V2.4125H9.91661L9.91244 2.41667V2.42292H9.90827C9.89786 2.43542 9.89369 2.44375 9.87911 2.45625C9.87494 2.46042 9.86244 2.47083 9.85411 2.47708C9.82911 2.49375 9.79786 2.52083 9.77286 2.54375C9.75619 2.55417 9.73952 2.56875 9.72702 2.57917L9.72494 2.58125C9.69161 2.60833 9.66036 2.63333 9.62286 2.6625V2.66458C9.57286 2.70625 9.52494 2.74583 9.46869 2.79375L9.46453 2.79167C9.34577 2.88958 9.22077 3 9.07703 3.12292V3.125H9.07494C8.72286 3.43333 8.30411 3.82917 7.83536 4.30833L7.80411 4.33958L7.79577 4.34792C4.96244 7.27917 0.497858 13.3875 0.0270249 23.2583C-0.0146418 24.075 -0.00630836 24.8687 0.039525 25.6417V25.6604C0.266608 29.55 1.48744 32.8708 3.01452 35.5687C3.62286 36.6437 4.27911 37.6229 4.94369 38.4979C7.23952 41.5292 9.58327 43.3271 10.1812 43.7625C11.0999 45.8937 11.0145 49.5521 11.0145 49.5521L12.3562 50C12.3562 50 12.0833 46.4562 12.4666 44.7458C12.5854 44.2104 12.8666 43.7542 13.1937 43.3667C13.4145 43.2104 14.0687 42.7396 14.8541 42.0229C14.8916 41.9833 14.9124 41.9479 14.9458 41.9104C18.1145 38.9562 24.0333 31.6812 22.0041 19.8292Z" fill="#47A248"/>
</svg>
