<svg width="50" height="50" viewBox="0 0 46 50" fill="none" xmlns="http://www.w3.org/2000/svg">
<path d="M20.5498 0.531118C21.7842 -0.175443 23.392 -0.178634 24.6253 0.531118C30.8301 4.03715 37.0369 7.53768 43.2406 11.0458C44.4074 11.7031 45.1879 13.0017 45.176 14.3462V35.4398C45.1847 36.84 44.3271 38.1696 43.0961 38.812C36.9117 42.2987 30.7305 45.7896 24.5471 49.2763C23.2872 49.9967 21.6471 49.9412 20.4266 49.1618C18.5725 48.087 16.7152 47.0175 14.861 45.9437C14.4821 45.7178 14.0549 45.538 13.7874 45.1707C14.0239 44.8519 14.4468 44.8121 14.7904 44.673C15.5643 44.4269 16.2752 44.0318 16.9861 43.6485C17.1659 43.5254 17.3854 43.5726 17.5578 43.6827C19.1432 44.5918 20.7147 45.5272 22.3055 46.4276C22.6448 46.6235 22.9885 46.3634 23.2785 46.2017C29.3473 42.7717 35.4236 39.3547 41.4913 35.9237C41.7161 35.8155 41.8404 35.5769 41.8221 35.3306C41.8264 28.3723 41.8232 21.4127 41.8243 14.4543C41.85 14.1749 41.6883 13.918 41.4356 13.8036C35.2727 10.3329 29.1129 6.85683 22.951 3.3852C22.8443 3.3118 22.7178 3.27242 22.5883 3.27223C22.4587 3.27204 22.3321 3.31105 22.2252 3.38413C16.0633 6.85683 9.90458 10.3361 3.74271 13.8067C3.49093 13.9212 3.32196 14.1738 3.35193 14.4543C3.35299 21.4127 3.35193 28.3723 3.35193 35.3316C3.34124 35.4518 3.36763 35.5724 3.42755 35.6771C3.48746 35.7818 3.57802 35.8656 3.68703 35.9173C5.33136 36.8497 6.97781 37.7756 8.6232 38.7049C9.55015 39.2038 10.6883 39.5003 11.7095 39.118C12.6108 38.7948 13.2425 37.8751 13.2253 36.9182C13.2338 30.0004 13.2211 23.0816 13.2317 16.165C13.2092 15.8579 13.5005 15.6042 13.7991 15.6331C14.5892 15.6277 15.3803 15.6224 16.1704 15.6352C16.5002 15.6277 16.7271 15.9584 16.6863 16.2678C16.6831 23.2293 16.6948 30.191 16.681 37.1526C16.6831 39.0079 15.9209 41.0267 14.2048 41.9345C12.0906 43.0297 9.47746 42.7974 7.38881 41.7473C5.58065 40.8448 3.85512 39.7797 2.07905 38.8129C0.844834 38.174 -0.00853534 36.8391 0.000152606 35.44V14.3462C-0.0127907 12.9738 0.798734 11.6517 2.00193 11.004C8.18526 7.51445 14.3675 4.02225 20.5498 0.531118Z" fill="#8CC84B"/>
</svg>
